<svg width="74" height="175" viewBox="0 0 74 175" fill="none" xmlns="http://www.w3.org/2000/svg">
<path d="M2.30285 173.196C1.85878 173.388 1.65433 173.904 1.84621 174.348C2.0381 174.792 2.55365 174.996 2.99773 174.805L2.30285 173.196ZM12.1308 0.564898L2.40073 3.32647L9.65735 10.3722L12.1308 0.564898ZM2.99773 174.805C25.9525 164.886 52.0981 141.135 64.9889 117.271C71.4334 105.341 74.6384 93.2468 72.3196 82.775C69.984 72.2277 62.0982 63.546 46.8726 58.3921L46.3109 60.0515C61.1111 65.0613 68.4381 73.3491 70.6091 83.1538C72.7969 93.034 69.8022 104.675 63.4475 116.438C50.7399 139.963 24.889 163.437 2.30285 173.196L2.99773 174.805ZM46.8726 58.3921C21.1918 49.6992 8.97565 39.8106 4.33079 30.6827C-0.271057 21.6394 2.45713 13.1105 7.33315 6.75512L5.94324 5.68875C0.805477 12.3853 -2.2358 21.6412 2.76946 31.4772C7.73171 41.2288 20.4992 51.3142 46.3109 60.0515L46.8726 58.3921Z" fill="black"/>
</svg>
