<svg width="152" height="62" viewBox="0 0 152 62" fill="none" xmlns="http://www.w3.org/2000/svg">
<path d="M26.1807 26.7175C26.1807 33.0087 24.7471 37.2816 21.8799 39.5364C20.6829 40.4829 19.3885 41.1371 17.9966 41.4989C16.6048 41.833 14.7814 42 12.5266 42H1.92075L1.79549 40.5386C1.90683 40.455 2.47749 40.2741 3.50746 39.9957C4.53743 39.7174 5.14984 39.5782 5.3447 39.5782C5.17768 28.7218 5.0385 20.649 4.92715 15.36C3.67448 15.193 2.44966 14.8589 1.25266 14.3579C1.30834 13.4114 1.37793 12.8825 1.46144 12.7712H11.9838C14.8789 12.7712 17.1615 13.0356 18.8317 13.5645C20.5298 14.0934 22.0051 15.0677 23.2578 16.4874C25.2064 18.6308 26.1807 22.0409 26.1807 26.7175ZM22.1304 27.0515C22.1304 23.2935 21.4206 20.4681 20.0009 18.5752C18.609 16.6544 16.2568 15.694 12.9442 15.694H8.68514C8.57379 20.816 8.43461 28.6382 8.26759 39.1606H12.6519C16.4656 39.1606 18.9987 38.3116 20.2514 36.6135C21.5041 34.8876 22.1304 31.7003 22.1304 27.0515ZM34.3644 41.8747C33.6407 42.0418 32.9308 42.1253 32.2349 42.1253C31.5668 42.1253 30.8987 42.0835 30.2306 42C30.0636 41.2206 29.9801 40.4411 29.9801 39.6617C29.9801 38.8544 30.0079 38.2559 30.0636 37.8662C30.676 37.727 31.3163 37.6574 31.9844 37.6574C32.6803 37.6574 33.418 37.6853 34.1974 37.7409C34.3644 38.4647 34.4479 39.1745 34.4479 39.8705C34.4479 40.5386 34.4201 41.2066 34.3644 41.8747ZM52.7372 31.5611L52.5702 39.1606L56.0776 39.4947C56.0776 40.3298 55.8549 41.1649 55.4095 42H45.764L45.6387 40.5386C47.3368 39.954 48.6173 39.6199 49.4802 39.5364C49.4524 37.8105 49.3828 35.1521 49.2715 31.5611L40.5028 15.2347C39.3893 15.012 38.1367 14.678 36.7448 14.2326L36.8701 12.7712H47.7265C48.1997 13.6619 48.4364 14.4971 48.4364 15.2765C47.0724 15.36 45.8197 15.4435 44.6784 15.527L50.8999 28.1789H51.3592L57.5808 15.2347C56.4673 15.0677 55.159 14.7337 53.6558 14.2326L53.7811 12.7712H63.8859C64.3591 13.6619 64.5957 14.4971 64.5957 15.2765C63.3709 15.36 62.1878 15.4435 61.0465 15.527L52.7372 31.5611ZM71.3083 41.8747C70.5845 42.0418 69.8747 42.1253 69.1787 42.1253C68.5106 42.1253 67.8426 42.0835 67.1745 42C67.0074 41.2206 66.9239 40.4411 66.9239 39.6617C66.9239 38.8544 66.9518 38.2559 67.0074 37.8662C67.6199 37.727 68.2601 37.6574 68.9282 37.6574C69.6241 37.6574 70.3618 37.6853 71.1412 37.7409C71.3083 38.4647 71.3918 39.1745 71.3918 39.8705C71.3918 40.5386 71.3639 41.2066 71.3083 41.8747ZM99.9528 15.527L91.3512 42H87.0086L77.4466 15.2347C76.3332 15.012 75.0805 14.678 73.6886 14.2326L73.8139 12.7712H84.6703C85.1436 13.6619 85.3802 14.4971 85.3802 15.2765C84.0162 15.36 82.7635 15.4435 81.6222 15.527L89.0129 37.6157H89.2217C89.8341 35.5279 92.1585 28.0676 96.1949 15.2347C95.0814 15.0677 93.773 14.7337 92.2698 14.2326L92.3951 12.7712H102.876C103.349 13.6619 103.586 14.4971 103.586 15.2765C102.305 15.36 101.094 15.4435 99.9528 15.527ZM110.495 41.8747C109.771 42.0418 109.061 42.1253 108.365 42.1253C107.697 42.1253 107.029 42.0835 106.361 42C106.194 41.2206 106.11 40.4411 106.11 39.6617C106.11 38.8544 106.138 38.2559 106.194 37.8662C106.806 37.727 107.447 37.6574 108.115 37.6574C108.811 37.6574 109.548 37.6853 110.328 37.7409C110.495 38.4647 110.578 39.1745 110.578 39.8705C110.578 40.5386 110.55 41.2066 110.495 41.8747ZM119.389 13.648C119.89 13.481 121.254 13.3001 123.481 13.1052C125.708 12.8825 127.726 12.7712 129.536 12.7712C131.373 12.7712 132.793 12.8547 133.795 13.0217C133.823 13.133 133.836 13.2722 133.836 13.4392C133.836 13.5784 133.753 13.9264 133.586 14.4831C133.447 15.0399 133.335 15.4018 133.252 15.5688C133.029 15.7915 132.403 15.9585 131.373 16.0698L139.348 39.1606L143.315 39.4947C143.315 40.2741 143.078 41.1092 142.605 42H133.001L132.876 40.5386C133.516 40.2045 134.449 39.9122 135.674 39.6617L133.544 33.6907H121.894L119.932 39.1606L123.314 39.4947C123.314 40.2741 123.077 41.1092 122.604 42H113L112.875 40.5386C113.961 40.1488 115.116 39.8426 116.341 39.6199L124.441 15.9446C121.964 15.6662 120.224 15.3322 119.222 14.9424L119.389 13.648ZM130.245 24.3792L128.032 16.1951C127.865 16.1673 127.629 16.1534 127.323 16.1534L125.068 24.6715L122.646 31.0183H132.793L130.245 24.3792Z" fill="#401223"/>
<path d="M6.8797 50.7773C6.8797 52.4305 6.50298 53.5533 5.74955 54.1458C5.435 54.3945 5.09486 54.5664 4.72911 54.6615C4.36336 54.7493 3.88423 54.7932 3.29172 54.7932H0.504731L0.471814 54.4092C0.501074 54.3872 0.65103 54.3397 0.921683 54.2665C1.19234 54.1934 1.35326 54.1568 1.40447 54.1568C1.36058 51.304 1.324 49.1827 1.29474 47.7928C0.965573 47.7489 0.643715 47.6611 0.329172 47.5295C0.343802 47.2808 0.36209 47.1418 0.384034 47.1125H3.14908C3.90984 47.1125 4.50966 47.182 4.94856 47.321C5.39477 47.46 5.78246 47.716 6.11164 48.0891C6.62368 48.6523 6.8797 49.5484 6.8797 50.7773ZM5.81538 50.8651C5.81538 49.8776 5.62885 49.1351 5.25579 48.6377C4.89004 48.133 4.27193 47.8806 3.40145 47.8806H2.28226C2.253 49.2265 2.21643 51.282 2.17254 54.0471H3.32464C4.32679 54.0471 4.99245 53.824 5.32162 53.3778C5.65079 52.9242 5.81538 52.0867 5.81538 50.8651ZM9.68856 48.1768C9.49837 48.2207 9.31184 48.2427 9.12896 48.2427C8.9534 48.2427 8.77785 48.2317 8.60229 48.2098C8.5584 48.0049 8.53645 47.8001 8.53645 47.5953C8.53645 47.3832 8.54377 47.2259 8.5584 47.1235C8.71933 47.0869 8.88757 47.0686 9.06313 47.0686C9.246 47.0686 9.43985 47.0759 9.64467 47.0906C9.68856 47.2808 9.7105 47.4673 9.7105 47.6502C9.7105 47.8257 9.70319 48.0013 9.68856 48.1768ZM7.69158 49.329C8.31335 49.2192 8.79613 49.1644 9.13994 49.1644C9.48374 49.1644 9.70319 49.1717 9.79828 49.1863C9.79828 49.3619 9.77634 49.5557 9.73245 49.7678C9.68856 49.98 9.66295 50.0824 9.65564 50.0751L9.55689 54.0471L10.4786 54.1349C10.4786 54.3397 10.4164 54.5591 10.292 54.7932H7.76838L7.73547 54.4092C8.07195 54.2921 8.40113 54.2044 8.72298 54.1458C8.67909 52.3171 8.64252 50.9456 8.61326 50.0312C8.18899 50.0312 7.86714 49.9873 7.64769 49.8995L7.69158 49.329ZM11.9995 54.091C12.2556 54.2007 12.5664 54.2556 12.9322 54.2556C13.3053 54.2556 13.5978 54.1861 13.81 54.0471C14.0221 53.9081 14.1282 53.7179 14.1282 53.4765C14.1282 53.2351 14.0294 53.034 13.8319 52.873C13.6344 52.7121 13.393 52.5695 13.1077 52.4451C12.8225 52.3208 12.5372 52.1891 12.2519 52.0501C11.9666 51.9111 11.7252 51.7283 11.5277 51.5015C11.3302 51.2747 11.2315 51.0114 11.2315 50.7115C11.2315 50.2067 11.3997 49.8117 11.7362 49.5265C12.0727 49.2339 12.5372 49.0876 13.1297 49.0876C13.7295 49.0876 14.2928 49.2229 14.8194 49.4935C14.8268 49.5667 14.8304 49.7642 14.8304 50.086C14.8304 50.4006 14.7975 50.6712 14.7317 50.898C14.5561 50.9565 14.3476 50.9858 14.1062 50.9858L13.7441 49.8666C13.5832 49.7861 13.3638 49.7459 13.0858 49.7459C12.8152 49.7459 12.5994 49.8191 12.4384 49.9654C12.2775 50.1043 12.197 50.2836 12.197 50.503C12.197 50.7151 12.2958 50.9017 12.4933 51.0626C12.6981 51.2235 12.9432 51.3698 13.2284 51.5015C13.5137 51.6258 13.799 51.7612 14.0843 51.9075C14.3696 52.0465 14.611 52.233 14.8085 52.4671C15.0133 52.6938 15.1157 52.9572 15.1157 53.2571C15.1157 53.7838 14.9109 54.197 14.5012 54.497C14.0989 54.7896 13.6015 54.9359 13.009 54.9359C12.6871 54.9359 12.3433 54.8846 11.9776 54.7822C11.6118 54.6725 11.3046 54.5335 11.0559 54.3653C11.0559 53.8752 11.0998 53.4399 11.1876 53.0596C11.3558 53.0303 11.5826 53.0157 11.8679 53.0157L11.9995 54.091ZM18.6614 54.9249C17.7836 54.9249 17.1289 54.6798 16.6974 54.1897C16.2658 53.6923 16.05 52.9864 16.05 52.0721C16.05 50.0824 16.9351 49.0876 18.7053 49.0876C18.9906 49.0876 19.2868 49.1314 19.5941 49.2192C19.9013 49.2997 20.1427 49.3911 20.3183 49.4935C20.2963 50.1738 20.2268 50.6566 20.1098 50.9419C19.9781 50.9785 19.872 50.9968 19.7916 50.9968H19.605C19.5685 50.9968 19.5246 50.9931 19.4734 50.9858L19.1991 49.7788C18.9577 49.7569 18.8187 49.7459 18.7821 49.7459C18.2554 49.7459 17.8348 49.9068 17.5203 50.2287C17.2131 50.5505 17.0594 51.0919 17.0594 51.8526C17.0594 52.6134 17.1765 53.1912 17.4106 53.5862C17.652 53.9813 18.1128 54.1788 18.7931 54.1788C19.1149 54.1788 19.6197 54.0251 20.3073 53.7179C20.4463 53.9081 20.5194 54.0763 20.5267 54.2226C20.1537 54.4421 19.7879 54.614 19.4295 54.7384C19.0711 54.8627 18.815 54.9249 18.6614 54.9249ZM23.7601 54.2665C24.3745 54.2665 24.7878 54.0763 25 53.696C25.2194 53.3083 25.3291 52.7597 25.3291 52.0501C25.3291 50.9236 25.0804 50.2177 24.583 49.9324C24.3782 49.8154 24.0892 49.7569 23.7162 49.7569C23.3504 49.7569 23.003 49.8337 22.6738 49.9873C22.3812 50.5505 22.2349 51.2052 22.2349 51.9514C22.2349 52.6682 22.33 53.2205 22.5202 53.6082C22.7396 54.0471 23.1529 54.2665 23.7601 54.2665ZM21.2254 52.0501C21.2254 51.1211 21.4376 50.3969 21.8618 49.8776C22.2861 49.3509 22.9408 49.0876 23.8259 49.0876C24.711 49.0876 25.3511 49.329 25.7461 49.8117C26.1411 50.2872 26.3386 50.9931 26.3386 51.9294C26.3386 52.8657 26.1265 53.6009 25.7022 54.1349C25.2852 54.6689 24.6488 54.9359 23.793 54.9359C22.9371 54.9359 22.2934 54.6871 21.8618 54.1897C21.4376 53.6923 21.2254 52.9791 21.2254 52.0501ZM32.4731 49.9544L30.3335 54.7932H29.5545L27.5465 49.9654L26.6248 49.8776C26.6248 49.6728 26.687 49.4533 26.8113 49.2192H29.4667L29.4996 49.6033C29.2655 49.7057 29.0058 49.7861 28.7205 49.8447L29.7081 52.8401L29.9604 53.8057H30.0921L30.3664 52.8292L31.3868 49.8447L30.4652 49.6033L30.4981 49.2192H33.1863C33.3107 49.4533 33.3729 49.6728 33.3729 49.8776C33.0729 49.9141 32.773 49.9397 32.4731 49.9544ZM36.3886 54.1788C36.7104 54.1788 37.2151 54.0251 37.9027 53.7179C38.0417 53.9081 38.1149 54.0763 38.1222 54.2226C37.7491 54.4421 37.3834 54.614 37.025 54.7384C36.6665 54.8627 36.4105 54.9249 36.2569 54.9249C35.4084 54.9249 34.761 54.6725 34.3148 54.1678C33.8686 53.6557 33.6455 52.9425 33.6455 52.0282C33.6455 51.1138 33.8612 50.3969 34.2928 49.8776C34.7317 49.3509 35.3864 49.0876 36.2569 49.0876C36.9299 49.0876 37.4419 49.329 37.793 49.8117C38.1515 50.2945 38.3307 50.9419 38.3307 51.7539C38.2722 51.8563 38.2246 51.9258 38.188 51.9623L34.6549 51.9075C34.6622 52.6463 34.7902 53.2095 35.0389 53.5972C35.295 53.9849 35.7448 54.1788 36.3886 54.1788ZM37.3322 51.282C37.3322 50.7993 37.2444 50.4262 37.0688 50.1629C36.8933 49.8922 36.6007 49.7569 36.1911 49.7569C35.7814 49.7569 35.4157 49.8337 35.0938 49.9873C34.8744 50.4262 34.7354 50.8761 34.6769 51.3369C35.2547 51.3296 36.1398 51.3113 37.3322 51.282ZM42.5849 50.0092C42.5483 49.9727 42.4678 49.9544 42.3435 49.9544C42.2191 49.9544 42.0326 49.9983 41.7839 50.086C41.5425 50.1738 41.3231 50.2762 41.1255 50.3933C41.0817 52.0172 41.0524 53.2351 41.0378 54.0471L41.9595 54.1349C41.9595 54.3397 41.8973 54.5591 41.7729 54.7932H39.2493L39.2163 54.4092C39.5528 54.2921 39.882 54.2044 40.2039 54.1458C40.16 52.2878 40.1234 50.9126 40.0941 50.0202C39.6918 49.9983 39.37 49.9544 39.1286 49.8885L39.1725 49.318C39.5602 49.2083 40.1344 49.1534 40.8951 49.1534C41.0122 49.3363 41.0853 49.5703 41.1146 49.8556C41.9558 49.3436 42.4569 49.0876 42.6178 49.0876C42.7787 49.0876 42.9653 49.1205 43.1774 49.1863C43.3895 49.2448 43.5468 49.3107 43.6492 49.3838C43.6492 50.1153 43.5797 50.7115 43.4407 51.1723C43.3383 51.2016 43.2176 51.2162 43.0786 51.2162C42.947 51.2162 42.8555 51.2125 42.8043 51.2052L42.5849 50.0092ZM50.8579 52.0501L50.814 54.0471L51.7357 54.1349C51.7357 54.3543 51.6772 54.5738 51.5601 54.7932H49.0255L48.9926 54.4092C49.4388 54.2556 49.7753 54.1678 50.0021 54.1458C49.9947 53.6923 49.9765 52.9937 49.9472 52.0501L47.643 47.7599C47.3504 47.7014 47.0212 47.6136 46.6555 47.4966L46.6884 47.1125H49.5412C49.6656 47.3466 49.7278 47.566 49.7278 47.7709C49.3693 47.7928 49.0401 47.8148 48.7402 47.8367L50.3751 51.1613H50.4958L52.1307 47.7599C51.8381 47.716 51.4943 47.6282 51.0993 47.4966L51.1322 47.1125H53.7875C53.9119 47.3466 53.9741 47.566 53.9741 47.7709C53.6522 47.7928 53.3413 47.8148 53.0414 47.8367L50.8579 52.0501ZM56.9559 54.2665C57.5704 54.2665 57.9837 54.0763 58.1958 53.696C58.4152 53.3083 58.525 52.7597 58.525 52.0501C58.525 50.9236 58.2763 50.2177 57.7788 49.9324C57.574 49.8154 57.2851 49.7569 56.912 49.7569C56.5463 49.7569 56.1988 49.8337 55.8696 49.9873C55.577 50.5505 55.4307 51.2052 55.4307 51.9514C55.4307 52.6682 55.5258 53.2205 55.716 53.6082C55.9355 54.0471 56.3488 54.2665 56.9559 54.2665ZM54.4213 52.0501C54.4213 51.1211 54.6334 50.3969 55.0577 49.8776C55.482 49.3509 56.1366 49.0876 57.0217 49.0876C57.9069 49.0876 58.5469 49.329 58.9419 49.8117C59.3369 50.2872 59.5344 50.9931 59.5344 51.9294C59.5344 52.8657 59.3223 53.6009 58.898 54.1349C58.4811 54.6689 57.8447 54.9359 56.9888 54.9359C56.133 54.9359 55.4893 54.6871 55.0577 54.1897C54.6334 53.6923 54.4213 52.9791 54.4213 52.0501ZM63.1563 54.069C63.3684 54.069 63.6061 54.0251 63.8695 53.9374C64.1328 53.8423 64.3486 53.7289 64.5169 53.5972C64.4876 52.0391 64.462 50.8578 64.44 50.0531C63.9865 50.0531 63.65 50.0092 63.4306 49.9215L63.4745 49.3509C64.0962 49.2412 64.5827 49.1863 64.9338 49.1863C65.2922 49.1863 65.519 49.1936 65.6141 49.2083C65.6141 49.3399 65.5921 49.5155 65.5483 49.7349C65.5117 49.9544 65.4861 50.0751 65.4715 50.097L65.3398 54.0142C65.7275 54.0361 66.042 54.08 66.2834 54.1458L66.2615 54.7054C65.9396 54.8078 65.6287 54.859 65.3288 54.859C65.0289 54.859 64.846 54.8554 64.7802 54.8481C64.6412 54.5701 64.5607 54.3141 64.5388 54.08C64.1804 54.3507 63.8475 54.5591 63.5403 54.7054C63.2404 54.8517 63.0429 54.9249 62.9478 54.9249C62.3041 54.9249 61.8359 54.753 61.5433 54.4092C61.258 54.0581 61.1154 53.546 61.1154 52.873C61.1154 52.8657 61.1483 51.9294 61.2142 50.0641C60.7899 50.0641 60.3985 50.0166 60.0401 49.9215L60.084 49.3509C60.7058 49.2412 61.1886 49.1863 61.5324 49.1863C61.8762 49.1863 62.0956 49.1936 62.1907 49.2083C62.1907 49.3838 62.1688 49.5777 62.1249 49.7898C62.081 50.0019 62.0554 50.1043 62.0481 50.097L62.059 52.4671C62.059 53.023 62.1285 53.429 62.2675 53.685C62.4065 53.941 62.7027 54.069 63.1563 54.069ZM70.2195 50.0092C70.1829 49.9727 70.1025 49.9544 69.9781 49.9544C69.8538 49.9544 69.6672 49.9983 69.4185 50.086C69.1771 50.1738 68.9577 50.2762 68.7602 50.3933C68.7163 52.0172 68.687 53.2351 68.6724 54.0471L69.5941 54.1349C69.5941 54.3397 69.5319 54.5591 69.4076 54.7932H66.8839L66.851 54.4092C67.1875 54.2921 67.5166 54.2044 67.8385 54.1458C67.7946 52.2878 67.758 50.9126 67.7288 50.0202C67.3264 49.9983 67.0046 49.9544 66.7632 49.8885L66.8071 49.318C67.1948 49.2083 67.769 49.1534 68.5298 49.1534C68.6468 49.3363 68.7199 49.5703 68.7492 49.8556C69.5904 49.3436 70.0915 49.0876 70.2524 49.0876C70.4134 49.0876 70.5999 49.1205 70.812 49.1863C71.0242 49.2448 71.1814 49.3107 71.2838 49.3838C71.2838 50.1153 71.2143 50.7115 71.0754 51.1723C70.9729 51.2016 70.8523 51.2162 70.7133 51.2162C70.5816 51.2162 70.4902 51.2125 70.439 51.2052L70.2195 50.0092ZM81.1917 47.8367L78.9314 54.7932H77.7903L75.2776 47.7599C74.985 47.7014 74.6558 47.6136 74.2901 47.4966L74.323 47.1125H77.1758C77.3002 47.3466 77.3624 47.566 77.3624 47.7709C77.0039 47.7928 76.6748 47.8148 76.3749 47.8367L78.317 53.6411H78.3718C78.5328 53.0925 79.1436 51.1321 80.2042 47.7599C79.9116 47.716 79.5678 47.6282 79.1728 47.4966L79.2057 47.1125H81.9598C82.0842 47.3466 82.1463 47.566 82.1463 47.7709C81.8099 47.7928 81.4917 47.8148 81.1917 47.8367ZM84.7786 54.1788C85.1005 54.1788 85.6052 54.0251 86.2928 53.7179C86.4318 53.9081 86.5049 54.0763 86.5123 54.2226C86.1392 54.4421 85.7734 54.614 85.415 54.7384C85.0566 54.8627 84.8006 54.9249 84.6469 54.9249C83.7984 54.9249 83.151 54.6725 82.7048 54.1678C82.2586 53.6557 82.0355 52.9425 82.0355 52.0282C82.0355 51.1138 82.2513 50.3969 82.6829 49.8776C83.1218 49.3509 83.7765 49.0876 84.6469 49.0876C85.3199 49.0876 85.832 49.329 86.1831 49.8117C86.5415 50.2945 86.7207 50.9419 86.7207 51.7539C86.6622 51.8563 86.6147 51.9258 86.5781 51.9623L83.045 51.9075C83.0523 52.6463 83.1803 53.2095 83.429 53.5972C83.685 53.9849 84.1349 54.1788 84.7786 54.1788ZM85.7222 51.282C85.7222 50.7993 85.6345 50.4262 85.4589 50.1629C85.2833 49.8922 84.9907 49.7569 84.5811 49.7569C84.1715 49.7569 83.8057 49.8337 83.4839 49.9873C83.2644 50.4262 83.1254 50.8761 83.0669 51.3369C83.6448 51.3296 84.5299 51.3113 85.7222 51.282ZM91.0298 49.0876C91.732 49.0876 92.2404 49.2631 92.555 49.6142C92.8695 49.958 93.0268 50.4847 93.0268 51.1943C93.0268 51.3991 92.9975 52.35 92.939 54.0471L93.8607 54.1349C93.8607 54.3397 93.7985 54.5591 93.6742 54.7932H91.1505L91.1176 54.4092C91.4541 54.2921 91.7832 54.2044 92.1051 54.1458C92.0612 52.2293 92.021 51.165 91.9844 50.9529C91.9551 50.7334 91.9039 50.5432 91.8308 50.3823C91.7576 50.2214 91.6479 50.108 91.5016 50.0422C91.3553 49.9763 91.1615 49.9434 90.9201 49.9434C90.4373 49.9434 89.9691 50.0604 89.5156 50.2945C89.4717 51.9623 89.4425 53.2132 89.4278 54.0471L90.3495 54.1349C90.3495 54.3397 90.2873 54.5591 90.163 54.7932H87.6393L87.6064 54.4092C87.9429 54.2921 88.2721 54.2044 88.5939 54.1458C88.55 52.2878 88.5135 50.9126 88.4842 50.0202C88.0819 49.9983 87.76 49.9544 87.5186 49.8885L87.5625 49.318C87.9575 49.2083 88.5318 49.1534 89.2852 49.1534C89.373 49.2851 89.4388 49.4752 89.4827 49.724C89.7972 49.5557 90.1118 49.4094 90.4263 49.2851C90.7482 49.1534 90.9493 49.0876 91.0298 49.0876ZM97.1986 54.069C97.4107 54.069 97.6485 54.0251 97.9118 53.9374C98.1752 53.8423 98.391 53.7289 98.5592 53.5972C98.5299 52.0391 98.5043 50.8578 98.4824 50.0531C98.0289 50.0531 97.6924 50.0092 97.4729 49.9215L97.5168 49.3509C98.1386 49.2412 98.625 49.1863 98.9761 49.1863C99.3346 49.1863 99.5613 49.1936 99.6564 49.2083C99.6564 49.3399 99.6345 49.5155 99.5906 49.7349C99.554 49.9544 99.5284 50.0751 99.5138 50.097L99.3821 54.0142C99.7698 54.0361 100.084 54.08 100.326 54.1458L100.304 54.7054C99.982 54.8078 99.6711 54.859 99.3712 54.859C99.0712 54.859 98.8884 54.8554 98.8225 54.8481C98.6835 54.5701 98.6031 54.3141 98.5811 54.08C98.2227 54.3507 97.8899 54.5591 97.5826 54.7054C97.2827 54.8517 97.0852 54.9249 96.9901 54.9249C96.3464 54.9249 95.8783 54.753 95.5857 54.4092C95.3004 54.0581 95.1577 53.546 95.1577 52.873C95.1577 52.8657 95.1907 51.9294 95.2565 50.0641C94.8322 50.0641 94.4409 50.0166 94.0824 49.9215L94.1263 49.3509C94.7481 49.2412 95.2309 49.1863 95.5747 49.1863C95.9185 49.1863 96.1379 49.1936 96.233 49.2083C96.233 49.3838 96.2111 49.5777 96.1672 49.7898C96.1233 50.0019 96.0977 50.1043 96.0904 50.097L96.1014 52.4671C96.1014 53.023 96.1709 53.429 96.3098 53.685C96.4488 53.941 96.7451 54.069 97.1986 54.069ZM101.804 54.091C102.06 54.2007 102.371 54.2556 102.737 54.2556C103.11 54.2556 103.402 54.1861 103.614 54.0471C103.827 53.9081 103.933 53.7179 103.933 53.4765C103.933 53.2351 103.834 53.034 103.636 52.873C103.439 52.7121 103.198 52.5695 102.912 52.4451C102.627 52.3208 102.342 52.1891 102.056 52.0501C101.771 51.9111 101.53 51.7283 101.332 51.5015C101.135 51.2747 101.036 51.0114 101.036 50.7115C101.036 50.2067 101.204 49.8117 101.541 49.5265C101.877 49.2339 102.342 49.0876 102.934 49.0876C103.534 49.0876 104.097 49.2229 104.624 49.4935C104.631 49.5667 104.635 49.7642 104.635 50.086C104.635 50.4006 104.602 50.6712 104.536 50.898C104.361 50.9565 104.152 50.9858 103.911 50.9858L103.549 49.8666C103.388 49.7861 103.168 49.7459 102.89 49.7459C102.62 49.7459 102.404 49.8191 102.243 49.9654C102.082 50.1043 102.002 50.2836 102.002 50.503C102.002 50.7151 102.1 50.9017 102.298 51.0626C102.503 51.2235 102.748 51.3698 103.033 51.5015C103.318 51.6258 103.604 51.7612 103.889 51.9075C104.174 52.0465 104.415 52.233 104.613 52.4671C104.818 52.6938 104.92 52.9572 104.92 53.2571C104.92 53.7838 104.715 54.197 104.306 54.497C103.903 54.7896 103.406 54.9359 102.813 54.9359C102.492 54.9359 102.148 54.8846 101.782 54.7822C101.416 54.6725 101.109 54.5335 100.86 54.3653C100.86 53.8752 100.904 53.4399 100.992 53.0596C101.16 53.0303 101.387 53.0157 101.672 53.0157L101.804 54.091ZM110.076 47.3429C110.208 47.2991 110.566 47.2515 111.152 47.2003C111.737 47.1418 112.267 47.1125 112.743 47.1125C113.225 47.1125 113.598 47.1345 113.862 47.1784C113.869 47.2076 113.873 47.2442 113.873 47.2881C113.873 47.3247 113.851 47.4161 113.807 47.5624C113.77 47.7087 113.741 47.8038 113.719 47.8477C113.661 47.9062 113.496 47.9501 113.225 47.9793L115.321 54.0471L116.363 54.1349C116.363 54.3397 116.301 54.5591 116.177 54.7932H113.653L113.62 54.4092C113.789 54.3214 114.034 54.2446 114.356 54.1788L113.796 52.6097H110.735L110.219 54.0471L111.108 54.1349C111.108 54.3397 111.046 54.5591 110.921 54.7932H108.398L108.365 54.4092C108.65 54.3068 108.953 54.2263 109.275 54.1678L111.404 47.9464C110.753 47.8733 110.296 47.7855 110.032 47.6831L110.076 47.3429ZM112.929 50.1629L112.348 48.0123C112.304 48.0049 112.242 48.0013 112.161 48.0013L111.569 50.2397L110.932 51.9075H113.598L112.929 50.1629ZM118.539 54.2336L118.484 56.5817L119.439 56.6585C119.439 56.8633 119.376 57.0828 119.252 57.3169H116.706L116.674 56.9328C117.01 56.8231 117.339 56.739 117.661 56.6805C117.617 53.696 117.581 51.4759 117.551 50.0202C117.222 50.0129 116.9 49.969 116.586 49.8885L116.63 49.318C117.054 49.2083 117.646 49.1534 118.407 49.1534C118.473 49.2704 118.535 49.4862 118.594 49.8008C119.53 49.3253 120.123 49.0876 120.371 49.0876C121.052 49.0876 121.556 49.3546 121.885 49.8885C122.215 50.4152 122.379 51.1028 122.379 51.9514C122.379 52.7926 122.193 53.4985 121.82 54.069C121.454 54.6396 120.92 54.9249 120.218 54.9249C119.954 54.9249 119.665 54.859 119.351 54.7274C119.044 54.5957 118.773 54.4311 118.539 54.2336ZM120.174 49.9105C119.72 49.9105 119.194 50.0714 118.594 50.3933C118.579 51.7539 118.564 52.7743 118.55 53.4546C118.733 53.6375 118.974 53.8057 119.274 53.9593C119.581 54.1056 119.848 54.1788 120.075 54.1788C120.938 54.1788 121.37 53.4692 121.37 52.0501C121.37 51.5088 121.308 51.0845 121.183 50.7773C121.059 50.4628 120.916 50.2397 120.755 50.108C120.594 49.9763 120.401 49.9105 120.174 49.9105ZM124.893 54.2336L124.838 56.5817L125.793 56.6585C125.793 56.8633 125.731 57.0828 125.606 57.3169H123.061L123.028 56.9328C123.364 56.8231 123.693 56.739 124.015 56.6805C123.971 53.696 123.935 51.4759 123.905 50.0202C123.576 50.0129 123.254 49.969 122.94 49.8885L122.984 49.318C123.408 49.2083 124.001 49.1534 124.761 49.1534C124.827 49.2704 124.889 49.4862 124.948 49.8008C125.884 49.3253 126.477 49.0876 126.725 49.0876C127.406 49.0876 127.91 49.3546 128.24 49.8885C128.569 50.4152 128.733 51.1028 128.733 51.9514C128.733 52.7926 128.547 53.4985 128.174 54.069C127.808 54.6396 127.274 54.9249 126.572 54.9249C126.308 54.9249 126.019 54.859 125.705 54.7274C125.398 54.5957 125.127 54.4311 124.893 54.2336ZM126.528 49.9105C126.074 49.9105 125.548 50.0714 124.948 50.3933C124.933 51.7539 124.919 52.7743 124.904 53.4546C125.087 53.6375 125.328 53.8057 125.628 53.9593C125.935 54.1056 126.202 54.1788 126.429 54.1788C127.292 54.1788 127.724 53.4692 127.724 52.0501C127.724 51.5088 127.662 51.0845 127.537 50.7773C127.413 50.4628 127.27 50.2397 127.109 50.108C126.948 49.9763 126.755 49.9105 126.528 49.9105ZM132.311 54.1788C132.633 54.1788 133.138 54.0251 133.826 53.7179C133.965 53.9081 134.038 54.0763 134.045 54.2226C133.672 54.4421 133.306 54.614 132.948 54.7384C132.589 54.8627 132.333 54.9249 132.18 54.9249C131.331 54.9249 130.684 54.6725 130.238 54.1678C129.791 53.6557 129.568 52.9425 129.568 52.0282C129.568 51.1138 129.784 50.3969 130.216 49.8776C130.655 49.3509 131.309 49.0876 132.18 49.0876C132.853 49.0876 133.365 49.329 133.716 49.8117C134.074 50.2945 134.254 50.9419 134.254 51.7539C134.195 51.8563 134.148 51.9258 134.111 51.9623L130.578 51.9075C130.585 52.6463 130.713 53.2095 130.962 53.5972C131.218 53.9849 131.668 54.1788 132.311 54.1788ZM133.255 51.282C133.255 50.7993 133.167 50.4262 132.992 50.1629C132.816 49.8922 132.524 49.7569 132.114 49.7569C131.704 49.7569 131.339 49.8337 131.017 49.9873C130.797 50.4262 130.658 50.8761 130.6 51.3369C131.178 51.3296 132.063 51.3113 133.255 51.282ZM139.55 51.2052L139.495 54.0361C139.81 54.0581 140.124 54.1093 140.439 54.1897L140.417 54.5738C140.3 54.6323 140.088 54.6981 139.781 54.7713C139.481 54.8371 139.184 54.87 138.892 54.87C138.76 54.6067 138.687 54.3543 138.672 54.1129C137.838 54.6615 137.253 54.9359 136.917 54.9359C136.397 54.9359 135.98 54.7969 135.666 54.5189C135.351 54.2409 135.194 53.8532 135.194 53.3558C135.194 52.2074 135.896 51.6149 137.301 51.5783C138.12 51.5564 138.533 51.5454 138.541 51.5454L138.53 51.1723C138.515 50.6676 138.42 50.3055 138.244 50.086C138.069 49.8593 137.754 49.7459 137.301 49.7459C137.111 49.7459 136.906 49.7898 136.686 49.8776L136.423 50.9748C136.386 50.9821 136.324 50.9858 136.236 50.9858L135.787 50.9529C135.67 50.6383 135.607 50.2031 135.6 49.6472C135.739 49.574 136.057 49.4643 136.555 49.318C137.052 49.1644 137.37 49.0876 137.509 49.0876C138.255 49.0876 138.782 49.2521 139.089 49.5813C139.397 49.9105 139.55 50.4518 139.55 51.2052ZM137.158 54.1897C137.37 54.1897 137.86 53.952 138.628 53.4765L138.574 52.105C138.076 52.1489 137.659 52.1891 137.323 52.2257C136.986 52.2622 136.716 52.361 136.511 52.5219C136.306 52.6755 136.204 52.9206 136.204 53.2571C136.204 53.8788 136.522 54.1897 137.158 54.1897ZM142.535 46.6407C142.762 46.6407 142.923 46.648 143.018 46.6627C143.018 46.9187 142.971 47.2113 142.875 47.5404C142.81 51.8563 142.777 54.0251 142.777 54.0471L143.698 54.1349C143.698 54.3397 143.636 54.5591 143.512 54.7932H140.988L140.955 54.4092C141.292 54.2921 141.621 54.2044 141.943 54.1458L141.833 47.5075C141.431 47.4856 141.109 47.4417 140.868 47.3759L140.911 46.8053C141.284 46.6956 141.826 46.6407 142.535 46.6407Z" fill="#401223"/>
</svg>
