<svg width="113" height="24" viewBox="0 0 113 24" fill="none" xmlns="http://www.w3.org/2000/svg">
<path d="M20.52 11.0218C20.52 15.9527 19.3964 19.3018 17.1491 21.0691C16.2109 21.8109 15.1964 22.3236 14.1055 22.6073C13.0145 22.8691 11.5855 23 9.81818 23H1.50545L1.40727 21.8545C1.49455 21.7891 1.94182 21.6473 2.74909 21.4291C3.55636 21.2109 4.03636 21.1018 4.18909 21.1018C4.05818 12.5927 3.94909 6.26545 3.86182 2.12C2.88 1.98909 1.92 1.72727 0.981818 1.33454C1.02545 0.592726 1.08 0.178181 1.14545 0.090908H9.39273C11.6618 0.090908 13.4509 0.298181 14.76 0.712726C16.0909 1.12727 17.2473 1.89091 18.2291 3.00364C19.7564 4.68364 20.52 7.35636 20.52 11.0218ZM17.3455 11.2836C17.3455 8.33818 16.7891 6.12364 15.6764 4.64C14.5855 3.13454 12.7418 2.38182 10.1455 2.38182H6.80727C6.72 6.39636 6.61091 12.5273 6.48 20.7745H9.91636C12.9055 20.7745 14.8909 20.1091 15.8727 18.7782C16.8545 17.4255 17.3455 14.9273 17.3455 11.2836ZM26.9343 22.9018C26.367 23.0327 25.8107 23.0982 25.2652 23.0982C24.7416 23.0982 24.2179 23.0655 23.6943 23C23.5634 22.3891 23.4979 21.7782 23.4979 21.1673C23.4979 20.5345 23.5197 20.0655 23.5634 19.76C24.0434 19.6509 24.5452 19.5964 25.0688 19.5964C25.6143 19.5964 26.1925 19.6182 26.8034 19.6618C26.9343 20.2291 26.9997 20.7855 26.9997 21.3309C26.9997 21.8545 26.9779 22.3782 26.9343 22.9018ZM41.3345 14.8182L41.2036 20.7745L43.9527 21.0364C43.9527 21.6909 43.7782 22.3455 43.4291 23H35.8691L35.7709 21.8545C37.1018 21.3964 38.1055 21.1345 38.7818 21.0691C38.76 19.7164 38.7055 17.6327 38.6182 14.8182L31.7455 2.02182C30.8727 1.84727 29.8909 1.58545 28.8 1.23636L28.8982 0.090908H37.4073C37.7782 0.78909 37.9636 1.44364 37.9636 2.05454C36.8945 2.12 35.9127 2.18545 35.0182 2.25091L39.8945 12.1673H40.2545L45.1309 2.02182C44.2582 1.89091 43.2327 1.62909 42.0545 1.23636L42.1527 0.090908H50.0727C50.4436 0.78909 50.6291 1.44364 50.6291 2.05454C49.6691 2.12 48.7418 2.18545 47.8473 2.25091L41.3345 14.8182ZM55.8903 22.9018C55.323 23.0327 54.7666 23.0982 54.2212 23.0982C53.6975 23.0982 53.1739 23.0655 52.6503 23C52.5193 22.3891 52.4539 21.7782 52.4539 21.1673C52.4539 20.5345 52.4757 20.0655 52.5193 19.76C52.9993 19.6509 53.5012 19.5964 54.0248 19.5964C54.5703 19.5964 55.1484 19.6182 55.7593 19.6618C55.8903 20.2291 55.9557 20.7855 55.9557 21.3309C55.9557 21.8545 55.9339 22.3782 55.8903 22.9018ZM78.3414 2.25091L71.5996 23H68.196L60.7014 2.02182C59.8287 1.84727 58.8469 1.58545 57.756 1.23636L57.8541 0.090908H66.3632C66.7341 0.78909 66.9196 1.44364 66.9196 2.05454C65.8505 2.12 64.8687 2.18545 63.9741 2.25091L69.7669 19.5636H69.9305C70.4105 17.9273 72.2323 12.08 75.396 2.02182C74.5232 1.89091 73.4978 1.62909 72.3196 1.23636L72.4178 0.090908H80.6323C81.0032 0.78909 81.1887 1.44364 81.1887 2.05454C80.1851 2.12 79.236 2.18545 78.3414 2.25091ZM86.604 22.9018C86.0368 23.0327 85.4804 23.0982 84.9349 23.0982C84.4113 23.0982 83.8877 23.0655 83.364 23C83.2331 22.3891 83.1677 21.7782 83.1677 21.1673C83.1677 20.5345 83.1895 20.0655 83.2331 19.76C83.7131 19.6509 84.2149 19.5964 84.7386 19.5964C85.284 19.5964 85.8622 19.6182 86.4731 19.6618C86.604 20.2291 86.6695 20.7855 86.6695 21.3309C86.6695 21.8545 86.6477 22.3782 86.604 22.9018ZM93.5752 0.778182C93.9679 0.647272 95.037 0.505453 96.7825 0.352727C98.5279 0.178181 100.11 0.090908 101.528 0.090908C102.968 0.090908 104.081 0.156363 104.866 0.287273C104.888 0.374545 104.899 0.483635 104.899 0.614545C104.899 0.723636 104.833 0.996363 104.702 1.43273C104.593 1.86909 104.506 2.15273 104.441 2.28364C104.266 2.45818 103.775 2.58909 102.968 2.67636L109.219 20.7745L112.328 21.0364C112.328 21.6473 112.142 22.3018 111.772 23H104.244L104.146 21.8545C104.648 21.5927 105.379 21.3636 106.339 21.1673L104.67 16.4873H95.5388L94.0007 20.7745L96.6516 21.0364C96.6516 21.6473 96.4661 22.3018 96.0952 23H88.5679L88.4697 21.8545C89.3207 21.5491 90.2261 21.3091 91.1861 21.1345L97.5352 2.57818C95.5934 2.36 94.2297 2.09818 93.4443 1.79273L93.5752 0.778182ZM102.084 9.18909L100.35 2.77454C100.219 2.75273 100.033 2.74182 99.7934 2.74182L98.0261 9.41818L96.1279 14.3927H104.081L102.084 9.18909Z" fill="black"/>
</svg>
