<svg width="24" height="25" viewBox="0 0 24 25" fill="none" xmlns="http://www.w3.org/2000/svg">
<path d="M9.84375 18.25C9.6401 18.25 9.46943 18.1807 9.33176 18.042C9.1939 17.9036 9.125 17.7319 9.125 17.5269C9.125 17.3222 9.1939 17.1519 9.33176 17.0161C9.46943 16.8804 9.6401 16.8125 9.84375 16.8125H19.9062C20.1099 16.8125 20.2806 16.8818 20.4185 17.0205C20.5561 17.1589 20.625 17.3306 20.625 17.5356C20.625 17.7403 20.5561 17.9106 20.4185 18.0464C20.2806 18.1821 20.1099 18.25 19.9062 18.25H9.84375ZM9.84375 13.2188C9.6401 13.2188 9.46943 13.1494 9.33176 13.0108C9.1939 12.8723 9.125 12.7006 9.125 12.4957C9.125 12.2909 9.1939 12.1206 9.33176 11.9849C9.46943 11.8491 9.6401 11.7812 9.84375 11.7812H19.9062C20.1099 11.7812 20.2806 11.8506 20.4185 11.9892C20.5561 12.1277 20.625 12.2994 20.625 12.5043C20.625 12.7091 20.5561 12.8794 20.4185 13.0151C20.2806 13.1509 20.1099 13.2188 19.9062 13.2188H9.84375ZM4.09375 8.1875C3.8901 8.1875 3.71944 8.11816 3.58176 7.97954C3.44392 7.84106 3.375 7.66938 3.375 7.46444C3.375 7.25969 3.44392 7.08939 3.58176 6.95365C3.71944 6.8179 3.8901 6.75 4.09375 6.75H19.9062C20.1099 6.75 20.2806 6.81934 20.4185 6.95796C20.5561 7.09644 20.625 7.26812 20.625 7.47306C20.625 7.67781 20.5561 7.84811 20.4185 7.98385C20.2806 8.1196 20.1099 8.1875 19.9062 8.1875H4.09375Z" fill="black"/>
</svg>
