<svg width="25" height="24" viewBox="0 0 25 24" fill="none" xmlns="http://www.w3.org/2000/svg">
<g id="Photo-Camera--Streamline-Rounded-Material-Symbols">
<path id="Vector" d="M12.4883 17.1031C13.6463 17.1031 14.6167 16.7118 15.3993 15.9292C16.1819 15.1465 16.5732 14.1762 16.5732 13.0182C16.5732 11.8602 16.1819 10.8939 15.3993 10.1193C14.6167 9.3446 13.6463 8.95729 12.4883 8.95729C11.3303 8.95729 10.3641 9.3446 9.58939 10.1193C8.81472 10.8939 8.42741 11.8602 8.42741 13.0182C8.42741 14.1762 8.81472 15.1465 9.58939 15.9292C10.3641 16.7118 11.3303 17.1031 12.4883 17.1031ZM12.4883 15.6656C11.7297 15.6656 11.1027 15.4141 10.6076 14.9109C10.1125 14.4078 9.86491 13.7769 9.86491 13.0182C9.86491 12.2596 10.1125 11.6326 10.6076 11.1375C11.1027 10.6424 11.7297 10.3948 12.4883 10.3948C13.247 10.3948 13.8779 10.6424 14.3811 11.1375C14.8842 11.6326 15.1357 12.2596 15.1357 13.0182C15.1357 13.7769 14.8842 14.4078 14.3811 14.9109C13.8779 15.4141 13.247 15.6656 12.4883 15.6656ZM4.35449 20.625C3.97116 20.625 3.63574 20.4813 3.34824 20.1938C3.06074 19.9062 2.91699 19.5708 2.91699 19.1875V6.89687C2.91699 6.5295 3.06074 6.19811 3.34824 5.9026C3.63574 5.6071 3.97116 5.45937 4.35449 5.45937H7.87637L9.19408 3.87812C9.32187 3.70243 9.48158 3.57465 9.67324 3.49479C9.86491 3.41493 10.0725 3.375 10.2962 3.375H14.7045C14.9281 3.375 15.1357 3.41493 15.3274 3.49479C15.5191 3.57465 15.6788 3.70243 15.8066 3.87812L17.1243 5.45937H20.6462C21.0135 5.45937 21.3449 5.6071 21.6404 5.9026C21.9359 6.19811 22.0837 6.5295 22.0837 6.89687V19.1875C22.0837 19.5708 21.9359 19.9062 21.6404 20.1938C21.3449 20.4813 21.0135 20.625 20.6462 20.625H4.35449ZM4.35449 19.1875H20.6462V6.89687H16.4535L14.7045 4.8125H10.2962L8.5472 6.89687H4.35449V19.1875Z" fill="black"/>
</g>
</svg>
