<svg width="302" height="133" viewBox="0 0 302 133" fill="none" xmlns="http://www.w3.org/2000/svg">
<path d="M3.44266 17.2963C3.07668 16.5531 2.17752 16.2473 1.43431 16.6133C0.691107 16.9793 0.385306 17.8784 0.751283 18.6216L3.44266 17.2963ZM301.639 19.426L296.102 3.01457L284.658 16.016L301.639 19.426ZM0.751283 18.6216C19.8014 57.3075 62.9502 100.304 105.156 120.462C126.256 130.539 147.359 135.022 165.194 130.132C183.156 125.206 197.432 110.883 205.003 84.2188L202.117 83.3993C194.756 109.323 181.106 122.657 164.4 127.238C147.566 131.854 127.257 127.692 106.449 117.755C64.8386 97.8816 22.189 55.3651 3.44266 17.2963L0.751283 18.6216ZM205.003 84.2188C217.79 39.1884 233.799 17.2978 249.142 8.53288C264.345 -0.151544 279.286 3.8556 290.65 11.7378L292.36 9.27281C280.393 0.972077 264.182 -3.51313 247.654 5.92794C231.268 15.2886 214.969 38.1413 202.117 83.3993L205.003 84.2188Z" fill="black"/>
</svg>
