<svg width="25" height="24" viewBox="0 0 25 24" fill="none" xmlns="http://www.w3.org/2000/svg">
<path d="M12.488 17.1031C13.646 17.1031 14.6164 16.7118 15.399 15.9292C16.1816 15.1465 16.5729 14.1762 16.5729 13.0182C16.5729 11.8602 16.1816 10.8939 15.399 10.1193C14.6164 9.3446 13.646 8.95729 12.488 8.95729C11.33 8.95729 10.3638 9.3446 9.58908 10.1193C8.81441 10.8939 8.4271 11.8602 8.4271 13.0182C8.4271 14.1762 8.81441 15.1465 9.58908 15.9292C10.3638 16.7118 11.33 17.1031 12.488 17.1031ZM12.488 15.6656C11.7294 15.6656 11.1024 15.4141 10.6073 14.9109C10.1122 14.4078 9.8646 13.7769 9.8646 13.0182C9.8646 12.2596 10.1122 11.6326 10.6073 11.1375C11.1024 10.6424 11.7294 10.3948 12.488 10.3948C13.2467 10.3948 13.8776 10.6424 14.3807 11.1375C14.8839 11.6326 15.1354 12.2596 15.1354 13.0182C15.1354 13.7769 14.8839 14.4078 14.3807 14.9109C13.8776 15.4141 13.2467 15.6656 12.488 15.6656ZM4.35419 20.625C3.97085 20.625 3.63544 20.4813 3.34794 20.1938C3.06044 19.9062 2.91669 19.5708 2.91669 19.1875V6.89687C2.91669 6.5295 3.06044 6.19811 3.34794 5.9026C3.63544 5.6071 3.97085 5.45937 4.35419 5.45937H7.87606L9.19377 3.87812C9.32156 3.70243 9.48127 3.57465 9.67294 3.49479C9.8646 3.41493 10.0722 3.375 10.2959 3.375H14.7042C14.9278 3.375 15.1354 3.41493 15.3271 3.49479C15.5188 3.57465 15.6785 3.70243 15.8063 3.87812L17.124 5.45937H20.6459C21.0132 5.45937 21.3446 5.6071 21.6401 5.9026C21.9356 6.19811 22.0834 6.5295 22.0834 6.89687V19.1875C22.0834 19.5708 21.9356 19.9062 21.6401 20.1938C21.3446 20.4813 21.0132 20.625 20.6459 20.625H4.35419ZM4.35419 19.1875H20.6459V6.89687H16.4531L14.7042 4.8125H10.2959L8.5469 6.89687H4.35419V19.1875Z" fill="#DA3F78"/>
</svg>
