<svg width="236" height="129" viewBox="0 0 236 129" fill="none" xmlns="http://www.w3.org/2000/svg">
<path d="M232.618 60.4539C233.126 59.7992 234.068 59.6798 234.722 60.1874C235.377 60.6949 235.497 61.6371 234.989 62.2919L232.618 60.4539ZM0.339689 14.7889L9.50552 0.0924366L17.6502 15.3785L0.339689 14.7889ZM234.989 62.2919C213.949 89.434 173.442 116.075 137.302 125.062C119.235 129.555 102.004 129.699 88.8013 123.001C75.4809 116.244 66.6051 102.704 64.9522 80.6581L67.9438 80.4338C69.5392 101.713 77.9998 114.158 90.1586 120.326C102.435 126.554 118.826 126.565 136.578 122.151C172.077 113.323 211.999 87.0525 232.618 60.4539L234.989 62.2919ZM64.9522 80.6581C62.287 45.1127 53.9331 25.7205 44.0258 16.0854C34.2366 6.56516 22.6739 6.34435 12.7551 9.85454L11.7543 7.02642C22.4377 3.24564 35.2976 3.41221 46.1174 13.9348C56.8191 24.3424 65.2607 44.6484 67.9438 80.4338L64.9522 80.6581Z" fill="black"/>
</svg>
