<svg width="25" height="24" viewBox="0 0 25 24" fill="none" xmlns="http://www.w3.org/2000/svg">
<g id="Location-On--Streamline-Rounded-Material-Symbols">
<path id="Vector" d="M12.5 19.6905C14.6243 17.7578 16.1936 16.0049 17.2078 14.4316C18.2221 12.8584 18.7292 11.4728 18.7292 10.2748C18.7292 8.39349 18.1279 6.85296 16.9253 5.65328C15.7228 4.45376 14.2477 3.854 12.5 3.854C10.7523 3.854 9.27722 4.45376 8.07466 5.65328C6.87209 6.85296 6.27084 8.39349 6.27084 10.2748C6.27084 11.4728 6.78992 12.8584 7.82813 14.4316C8.86634 16.0049 10.4236 17.7578 12.5 19.6905ZM12.494 21.104C12.3223 21.104 12.1526 21.0761 11.9849 21.0202C11.8172 20.9642 11.6695 20.8724 11.5417 20.7446C10.8708 20.1377 10.1441 19.4389 9.36146 18.6483C8.57884 17.8577 7.85209 17.0071 7.18125 16.0967C6.51042 15.1863 5.95138 14.236 5.50417 13.2457C5.05695 12.2554 4.83334 11.2651 4.83334 10.2748C4.83334 7.879 5.60399 5.97034 7.14531 4.5488C8.68665 3.12727 10.4715 2.4165 12.5 2.4165C14.5285 2.4165 16.3134 3.12727 17.8547 4.5488C19.396 5.97034 20.1667 7.879 20.1667 10.2748C20.1667 11.2651 19.943 12.2554 19.4958 13.2457C19.0486 14.236 18.4896 15.1863 17.8188 16.0967C17.1479 17.0071 16.4212 17.8577 15.6385 18.6483C14.8559 19.4389 14.1292 20.1377 13.4583 20.7446C13.3305 20.8724 13.1808 20.9642 13.0091 21.0202C12.8374 21.0761 12.6657 21.104 12.494 21.104ZM12.5022 11.7603C12.9639 11.7603 13.3585 11.5958 13.6859 11.267C14.0134 10.9381 14.1771 10.5428 14.1771 10.081C14.1771 9.61924 14.0126 9.22465 13.6838 8.89723C13.3549 8.56982 12.9596 8.40609 12.4978 8.40609C12.0361 8.40609 11.6415 8.57054 11.3141 8.89939C10.9867 9.22824 10.8229 9.62355 10.8229 10.0853C10.8229 10.5471 10.9874 10.9417 11.3162 11.2691C11.6451 11.5965 12.0404 11.7603 12.5022 11.7603Z" fill="black"/>
</g>
</svg>
