<svg width="25" height="24" viewBox="0 0 25 24" fill="none" xmlns="http://www.w3.org/2000/svg">
<g id="Phone-Enabled--Streamline-Rounded-Material-Symbols">
<path id="Vector" d="M4.95312 20.625C4.64502 20.625 4.38835 20.5223 4.1831 20.3169C3.9777 20.1117 3.875 19.855 3.875 19.5469V16.3125C3.875 16.0744 3.95486 15.8591 4.11458 15.6666C4.2743 15.4743 4.47396 15.3462 4.71354 15.2823L7.56458 14.6594C7.76741 14.6274 7.97389 14.6434 8.18391 14.7073C8.39392 14.7712 8.57884 14.891 8.73854 15.0667L11.0146 17.4146C11.7333 17.0312 12.4201 16.588 13.075 16.0849C13.7299 15.5818 14.3528 15.0268 14.9438 14.4198C15.5028 13.8768 16.0139 13.3018 16.4771 12.6948C16.9403 12.0878 17.3795 11.433 17.7948 10.7302L15.4045 8.31593C15.273 8.18449 15.1873 8.02689 15.1474 7.84323C15.1075 7.65956 15.104 7.45304 15.1371 7.22367L15.7823 4.21354C15.8462 3.97396 15.958 3.7743 16.1177 3.61458C16.2774 3.45486 16.4691 3.375 16.6927 3.375H20.0469C20.355 3.375 20.6117 3.4777 20.8169 3.6831C21.0223 3.88835 21.125 4.14502 21.125 4.45312C21.125 6.30592 20.6778 8.1946 19.7833 10.1193C18.8889 12.0439 17.6191 13.8288 15.974 15.474C14.3288 17.1191 12.5439 18.3889 10.6193 19.2833C8.6946 20.1778 6.80592 20.625 4.95312 20.625ZM18.5135 9.4125C18.9128 8.45417 19.2083 7.60365 19.4 6.86094C19.5917 6.11823 19.6875 5.43542 19.6875 4.8125H17.124L16.5729 7.44792L18.5135 9.4125ZM9.67292 18.1094L7.78021 16.1208L5.3125 16.624V19.1875C6.03125 19.1555 6.77396 19.0437 7.54063 18.8521C8.30729 18.6604 9.01804 18.4128 9.67292 18.1094Z" fill="black"/>
</g>
</svg>
